<svg width="375" height="170" viewBox="0 0 375 170" fill="none" xmlns="http://www.w3.org/2000/svg">
<g opacity="0.5">
<path d="M-2.63682 213C-5.30527 212.978 -7.96514 212.696 -10.5781 212.155C-13.7684 211.746 -16.7828 210.465 -19.2871 208.452C-21.7915 206.439 -23.688 203.774 -24.7665 200.753C-29.8754 186.236 -18.0694 162.639 -8.48688 151.263C1.63897 137.811 6.7579 121.267 5.99273 104.465C5.70155 99.925 5.25154 95.7019 4.82801 92.0066C3.61034 81.2903 2.7368 73.5303 7.4751 68.3834C11.5252 63.8171 19.387 61.8375 33.7342 61.7847C58.8816 61.6527 68.8348 51.2268 76.8025 42.9388C79.8543 39.4137 83.4243 36.3702 87.3909 33.9119C99.9116 27.102 113.2 25.9934 118.944 31.5363C121.591 34.1758 124 39.1908 119.447 48.6137C115.971 55.5371 111.292 61.7924 105.629 67.09C99.8322 73.0024 95.9939 76.9089 98.0057 84.6953C98.4557 86.5165 99.0116 88.3642 99.541 90.2118C103.432 103.409 107.826 118.401 85.1143 128.59C80.2966 130.728 75.9289 132.47 72.0377 133.869C56.1551 140.071 46.6521 143.819 35.852 166.519C33.7607 170.927 31.9078 175.097 30.1342 179.136C21.3459 198.509 14.9134 213 -2.63682 213ZM88.635 36.6569C84.9854 38.9536 81.7093 41.793 78.9202 45.0768C70.5024 53.8398 60.0728 64.7673 33.5754 64.8993C20.3399 64.8993 13.0075 66.6677 9.75156 70.4422C6.49564 74.2166 6.86628 81.7391 7.97805 91.5579C8.40159 95.306 8.87802 99.4763 9.1692 104.148C10.0874 121.765 4.70286 139.135 -6.0251 153.163C-15.5282 164.407 -26.2489 186.816 -21.9077 199.618C-20.9991 202.131 -19.41 204.345 -17.3168 206.013C-15.2235 207.681 -12.7078 208.738 -10.0487 209.067C11.3399 213.37 17.2429 200.04 27.0107 177.948C28.8107 173.909 30.6636 169.713 32.7548 165.278C44.0844 141.523 54.6463 137.3 70.6347 130.965C74.473 129.461 78.8408 127.771 83.5791 125.686C103.776 116.633 100.15 104.201 96.2851 91.03C95.7292 89.156 95.1733 87.2556 94.6968 85.4079C92.2615 75.9322 97.0792 71.0492 103.141 64.8728C108.566 59.8246 113.048 53.8544 116.377 47.2412C118.415 42.9388 120.109 37.132 116.535 33.7534C111.797 29.2927 99.8057 30.5069 88.6085 36.6041L88.635 36.6569Z" fill="white"/>
<path d="M-9.8755 231L-13 230.842C-12.8411 227.911 -8.92223 158.976 18.7748 138.805C49.3051 116.654 58.8905 92.8929 63.4713 77.0519C68.7671 58.2539 96.2789 53.2904 97.444 53L98 56.0889C97.7352 56.0889 71.3356 60.9732 66.49 77.9231C61.7767 94.3185 51.9266 118.766 20.6813 141.472C-5.87714 160.64 -9.84902 230.182 -9.8755 231Z" fill="white"/>
</g>
<g opacity="0.5">
<path d="M381.637 267C384.305 266.978 386.965 266.696 389.578 266.155C392.768 265.746 395.783 264.465 398.287 262.452C400.792 260.439 402.688 257.774 403.767 254.753C408.875 240.236 397.069 216.639 387.487 205.263C377.361 191.811 372.242 175.267 373.007 158.465C373.298 153.925 373.748 149.702 374.172 146.007C375.39 135.29 376.263 127.53 371.525 122.383C367.475 117.817 359.613 115.837 345.266 115.785C320.118 115.653 310.165 105.227 302.197 96.9388C299.146 93.4137 295.576 90.3702 291.609 87.9119C279.088 81.102 265.8 79.9934 260.056 85.5363C257.409 88.1758 255 93.1908 259.553 102.614C263.029 109.537 267.708 115.792 273.371 121.09C279.168 127.002 283.006 130.909 280.994 138.695C280.544 140.517 279.988 142.364 279.459 144.212C275.568 157.409 271.174 172.401 293.886 182.59C298.703 184.728 303.071 186.47 306.962 187.869C322.845 194.071 332.348 197.819 343.148 220.519C345.239 224.927 347.092 229.097 348.866 233.136C357.654 252.509 364.087 267 381.637 267ZM290.365 90.6569C294.015 92.9536 297.291 95.793 300.08 99.0768C308.498 107.84 318.927 118.767 345.425 118.899C358.66 118.899 365.993 120.668 369.248 124.442C372.504 128.217 372.134 135.739 371.022 145.558C370.598 149.306 370.122 153.476 369.831 158.148C368.913 175.765 374.297 193.135 385.025 207.163C394.528 218.407 405.249 240.816 400.908 253.618C399.999 256.131 398.41 258.345 396.317 260.013C394.224 261.681 391.708 262.738 389.049 263.067C367.66 267.37 361.757 254.04 351.989 231.948C350.189 227.909 348.336 223.713 346.245 219.278C334.916 195.523 324.354 191.3 308.365 184.965C304.527 183.461 300.159 181.771 295.421 179.686C275.224 170.633 278.85 158.201 282.715 145.03C283.271 143.156 283.827 141.256 284.303 139.408C286.739 129.932 281.921 125.049 275.859 118.873C270.434 113.825 265.952 107.854 262.623 101.241C260.585 96.9388 258.891 91.132 262.465 87.7534C267.203 83.2927 279.194 84.5069 290.391 90.6041L290.365 90.6569Z" fill="white"/>
<path d="M388.875 285L392 284.842C391.841 281.911 387.922 212.976 360.225 192.805C329.695 170.654 320.11 146.893 315.529 131.052C310.233 112.254 282.721 107.29 281.556 107L281 110.089C281.265 110.089 307.664 114.973 312.51 131.923C317.223 148.319 327.073 172.766 358.319 195.472C384.877 214.64 388.849 284.182 388.875 285Z" fill="white"/>
</g>
<g opacity="0.5">
<path d="M215.935 155.607C214.813 155.979 213.601 155.979 212.479 155.607C211.897 155.428 211.362 155.123 210.911 154.715C210.459 154.307 210.103 153.805 209.867 153.244C208.826 151.277 207.531 149.454 206.014 147.825C203.769 147.169 201.788 145.823 200.351 143.978C198.914 142.134 198.094 139.884 198.008 137.547C197.921 135.211 198.573 132.907 199.87 130.962C201.167 129.016 203.043 127.528 205.234 126.708C207.424 125.888 209.817 125.777 212.074 126.392C214.33 127.007 216.336 128.317 217.807 130.135C219.277 131.952 220.138 134.187 220.268 136.521C220.397 138.855 219.788 141.171 218.527 143.14C218.583 145.259 218.917 147.361 219.52 149.393C220.424 151.676 219.013 154.356 216.372 155.448L215.935 155.607ZM206.004 127.428C203.909 128.102 202.088 129.432 200.81 131.223C199.532 133.014 198.865 135.168 198.91 137.367C198.955 139.566 199.708 141.692 201.057 143.43C202.407 145.167 204.281 146.423 206.401 147.011H206.53L206.61 147.11C208.228 148.828 209.604 150.758 210.701 152.847C210.885 153.29 211.164 153.686 211.52 154.007C211.875 154.328 212.298 154.566 212.757 154.703C213.816 155.04 214.961 154.987 215.985 154.554C218.169 153.681 219.351 151.487 218.626 149.671C217.996 147.506 217.662 145.266 217.633 143.011V142.872L217.712 142.753C218.879 140.985 219.468 138.898 219.396 136.78C219.325 134.663 218.597 132.621 217.314 130.935C216.03 129.249 214.255 128.003 212.232 127.369C210.21 126.736 208.04 126.746 206.024 127.398L206.004 127.428Z" fill="white"/>
<path d="M212.578 152.877L206.63 142.187L209.768 143.17L210.562 140.966L212.439 141.959L213.869 139.21L217.147 151.011L216.263 151.259L213.611 141.691L212.827 143.2L211.069 142.267L210.334 144.301L208.537 143.746L213.383 152.43L212.578 152.877Z" fill="white"/>
<path d="M219.571 152.963L212.235 155.906L213.423 158.863L220.759 155.92L219.571 152.963Z" fill="white"/>
<path d="M219.552 149.463L209.857 153.353L211.766 158.106L221.461 154.216L219.552 149.463Z" fill="white"/>
</g>
<path opacity="0.5" d="M157.319 20.8162C155.8 18.5128 153.428 16.9077 150.725 16.3541C148.022 15.8005 145.209 16.3437 142.905 17.8642C141.764 18.6171 140.783 19.5873 140.017 20.7193C139.251 21.8514 138.715 23.1231 138.44 24.4619C137.885 27.1659 138.427 29.979 139.946 32.2824C140.208 32.7171 140.521 33.1194 140.877 33.4809C141.108 33.7428 141.353 33.9924 141.61 34.2289C143.935 36.4536 149.292 40.4439 161.208 45.6346C161.148 32.6378 159.537 26.1077 158.498 23.1601C158.384 22.825 158.25 22.4966 158.099 22.1764C157.892 21.6945 157.631 21.2381 157.319 20.8162ZM152.199 31.9588C151.134 32.6604 149.885 33.031 148.61 33.0241C147.334 33.0172 146.09 32.633 145.033 31.9198C143.976 31.2067 143.154 30.1966 142.67 29.0167C142.186 27.8368 142.062 26.5399 142.314 25.2894C142.566 24.0389 143.182 22.8906 144.085 21.9894C144.988 21.0881 146.137 20.474 147.388 20.2246C148.638 19.9751 149.935 20.1014 151.114 20.5876C152.292 21.0737 153.301 21.8979 154.012 22.9564C154.488 23.665 154.819 24.4609 154.985 25.2982C155.152 26.1355 155.151 26.9975 154.982 27.8346C154.814 28.6717 154.481 29.4671 154.003 30.175C153.526 30.8828 152.913 31.4891 152.199 31.9588Z" fill="white"/>
<g opacity="0.5">
<path d="M153.336 119.789L124.971 114L121.006 133.409L149.371 139.197L153.336 119.789Z" fill="white"/>
<path d="M121 133.411L137.397 125.457L149.364 139.198L121 133.411Z" fill="#E8E8E8"/>
<path d="M153.325 119.787L136.67 128.983L124.961 114L153.325 119.787Z" fill="#F0F0F0"/>
</g>
<path opacity="0.5" d="M194.74 78C192.921 77.9942 191.14 78.5219 189.623 79.5167C188.106 80.5116 186.92 81.929 186.215 83.5903C184.614 82.7342 182.792 82.3658 180.98 82.5316C179.168 82.6974 177.446 83.3898 176.03 84.5221C171.127 88.4868 173.648 92.402 173.648 92.402C177.11 100.768 193.819 105 193.819 105C193.819 105 204.175 91.3315 201.584 82.6685C201.584 82.6685 201.083 78.0595 194.74 78Z" fill="white"/>
<g opacity="0.5">
<path d="M267.306 49.9985L245.662 31.0991L231.973 46.7775L229.087 50.0819L235.276 49.6619L253.617 65.6768L267.306 49.9985Z" fill="white"/>
<path d="M250.756 50.4736C250.47 50.8001 250.094 51.0346 249.675 51.1473C249.256 51.26 248.813 51.2459 248.402 51.1068C247.991 50.9677 247.63 50.7098 247.366 50.3658C247.101 50.0218 246.944 49.6071 246.915 49.1742C246.886 48.7412 246.986 48.3094 247.203 47.9334C247.419 47.5574 247.742 47.2541 248.131 47.0618C248.52 46.8696 248.957 46.7969 249.388 46.8532C249.818 46.9094 250.222 47.092 250.549 47.3778C250.766 47.5672 250.944 47.7977 251.072 48.056C251.2 48.3143 251.276 48.5953 251.295 48.883C251.314 49.1706 251.277 49.4592 251.184 49.7321C251.092 50.0051 250.946 50.2571 250.756 50.4736Z" fill="#DDDDDD"/>
<path d="M256.18 55.2217C255.894 55.5482 255.518 55.7827 255.099 55.8954C254.68 56.0081 254.237 55.994 253.826 55.8549C253.415 55.7158 253.054 55.4579 252.789 55.1139C252.525 54.7699 252.368 54.3552 252.339 53.9222C252.31 53.4893 252.41 53.0575 252.626 52.6815C252.843 52.3055 253.166 52.0022 253.555 51.8099C253.944 51.6176 254.381 51.545 254.811 51.6013C255.242 51.6575 255.646 51.8401 255.972 52.1259C256.189 52.3156 256.367 52.5462 256.495 52.8045C256.622 53.0628 256.698 53.3437 256.717 53.6312C256.737 53.9186 256.699 54.2071 256.607 54.48C256.515 54.7529 256.37 55.005 256.18 55.2217Z" fill="#DDDDDD"/>
<path d="M245.446 45.8205C245.16 46.147 244.784 46.3814 244.365 46.4941C243.946 46.6068 243.503 46.5927 243.092 46.4536C242.681 46.3145 242.32 46.0567 242.056 45.7127C241.791 45.3687 241.634 44.9539 241.605 44.521C241.576 44.088 241.676 43.6563 241.893 43.2803C242.109 42.9043 242.432 42.601 242.821 42.4087C243.21 42.2164 243.647 42.1438 244.077 42.2C244.508 42.2562 244.912 42.4388 245.239 42.7246C245.676 43.1084 245.943 43.6497 245.982 44.23C246.021 44.8103 245.828 45.3822 245.446 45.8205Z" fill="#DDDDDD"/>
</g>
<g opacity="0.5">
<path d="M327.366 59.7893L322.372 57.5953C322.175 57.5094 322.021 57.3491 321.943 57.1495C321.865 56.95 321.869 56.7276 321.955 56.5312C322.041 56.3348 322.201 56.1805 322.401 56.1023C322.6 56.0242 322.823 56.0285 323.02 56.1143L326.548 57.6501L329.095 52.006C329.183 51.8104 329.345 51.6577 329.546 51.5816C329.746 51.5054 329.969 51.5121 330.165 51.6001C330.361 51.6881 330.513 51.8503 330.59 52.0509C330.666 52.2514 330.659 52.474 330.571 52.6697L327.366 59.7893Z" fill="white"/>
<path d="M333.068 64.5393C331.417 65.6988 329.459 66.343 327.442 66.3905C325.425 66.438 323.439 65.8865 321.735 64.8059C320.032 63.7253 318.687 62.1641 317.871 60.3196C317.055 58.4751 316.805 56.4303 317.152 54.4437C317.499 52.457 318.427 50.6178 319.82 49.1586C321.213 47.6993 323.007 46.6856 324.976 46.2456C326.945 45.8057 329.001 45.9591 330.883 46.6867C332.764 47.4142 334.388 48.6832 335.549 50.3331C337.102 52.5466 337.713 55.2855 337.248 57.9489C336.783 60.6122 335.279 62.9824 333.068 64.5393ZM322.147 49.055C320.733 50.0493 319.646 51.4402 319.023 53.052C318.4 54.6638 318.269 56.4241 318.646 58.1103C319.024 59.7965 319.893 61.3329 321.145 62.5252C322.396 63.7176 323.973 64.5124 325.676 64.8092C327.379 65.1059 329.132 64.8913 330.713 64.1924C332.294 63.4935 333.633 62.3418 334.559 60.8828C335.485 59.4238 335.958 57.7231 335.917 55.9956C335.876 54.2681 335.324 52.5915 334.33 51.1778C332.99 49.2893 330.958 48.0067 328.676 47.6091C326.394 47.2115 324.047 47.7312 322.147 49.055Z" fill="white"/>
</g>
<g opacity="0.5">
<path d="M199.053 15.5734L193.256 14.7312L190.664 9.47869C190.519 9.18558 190.221 9 189.894 9C189.568 9 189.269 9.18539 189.124 9.47869L186.532 14.7312L180.735 15.5734C180.033 15.6754 179.751 16.5419 180.259 17.0378L184.454 21.1265L183.463 26.8999C183.344 27.5995 184.081 28.1361 184.709 27.8049L189.894 25.0793C195.542 28.0483 195.187 27.9038 195.478 27.9038C195.656 27.9038 195.833 27.8485 195.983 27.7397C196.247 27.5475 196.38 27.2221 196.325 26.9001L195.334 21.1267L199.529 17.038C200.037 16.5428 199.756 15.6758 199.053 15.5734Z" fill="white"/>
<path d="M189.457 22.6412L185.263 18.5525C184.754 18.0571 185.035 17.1902 185.738 17.088L191.535 16.2459L192.77 13.7447L190.664 9.47869C190.519 9.18558 190.221 9 189.894 9C189.568 9 189.269 9.18539 189.124 9.47869L186.532 14.7312L180.735 15.5734C180.033 15.6754 179.751 16.5419 180.259 17.0378L184.454 21.1265L183.463 26.8999C183.344 27.5995 184.081 28.1361 184.709 27.8049L188.954 25.5736L189.457 22.6412Z" fill="#E0E0E0"/>
</g>
<path opacity="0.5" d="M40.8439 14.6878C44.6237 14.6878 47.6878 11.6237 47.6878 7.8439C47.6878 4.06412 44.6237 1 40.8439 1C37.0641 1 34 4.06412 34 7.8439C34 11.6237 37.0641 14.6878 40.8439 14.6878Z" fill="white"/>
<path opacity="0.5" d="M256.604 2.51988C255.306 1.58369 248.611 -2.83373 245.088 2.8462C242.913 6.35298 244.109 9.46884 247.691 11.6215C247.691 11.622 247.694 11.6238 247.694 11.6238C260.166 19.139 282.045 34.8302 301.246 61.4151C301.246 61.4146 285.36 24.3564 256.604 2.51988Z" fill="white"/>
<g opacity="0.5">
<path d="M-2.63682 213C-5.30527 212.978 -7.96514 212.696 -10.5781 212.155C-13.7684 211.746 -16.7828 210.465 -19.2871 208.452C-21.7915 206.439 -23.688 203.774 -24.7665 200.753C-29.8754 186.236 -18.0694 162.639 -8.48688 151.263C1.63897 137.811 6.7579 121.267 5.99273 104.465C5.70155 99.925 5.25154 95.7019 4.82801 92.0066C3.61034 81.2903 2.7368 73.5303 7.4751 68.3834C11.5252 63.8171 19.387 61.8375 33.7342 61.7847C58.8816 61.6527 68.8348 51.2268 76.8025 42.9388C79.8543 39.4137 83.4243 36.3702 87.3909 33.9119C99.9116 27.102 113.2 25.9934 118.944 31.5363C121.591 34.1758 124 39.1908 119.447 48.6137C115.971 55.5371 111.292 61.7924 105.629 67.09C99.8322 73.0024 95.9939 76.9089 98.0057 84.6953C98.4557 86.5165 99.0116 88.3642 99.541 90.2118C103.432 103.409 107.826 118.401 85.1143 128.59C80.2966 130.728 75.9289 132.47 72.0377 133.869C56.1551 140.071 46.6521 143.819 35.852 166.519C33.7607 170.927 31.9078 175.097 30.1342 179.136C21.3459 198.509 14.9134 213 -2.63682 213ZM88.635 36.6569C84.9854 38.9536 81.7093 41.793 78.9202 45.0768C70.5024 53.8398 60.0728 64.7673 33.5754 64.8993C20.3399 64.8993 13.0075 66.6677 9.75156 70.4422C6.49564 74.2166 6.86628 81.7391 7.97805 91.5579C8.40159 95.306 8.87802 99.4763 9.1692 104.148C10.0874 121.765 4.70286 139.135 -6.0251 153.163C-15.5282 164.407 -26.2489 186.816 -21.9077 199.618C-20.9991 202.131 -19.41 204.345 -17.3168 206.013C-15.2235 207.681 -12.7078 208.738 -10.0487 209.067C11.3399 213.37 17.2429 200.04 27.0107 177.948C28.8107 173.909 30.6636 169.713 32.7548 165.278C44.0844 141.523 54.6463 137.3 70.6347 130.965C74.473 129.461 78.8408 127.771 83.5791 125.686C103.776 116.633 100.15 104.201 96.2851 91.03C95.7292 89.156 95.1733 87.2556 94.6968 85.4079C92.2615 75.9322 97.0792 71.0492 103.141 64.8728C108.566 59.8246 113.048 53.8544 116.377 47.2412C118.415 42.9388 120.109 37.132 116.535 33.7534C111.797 29.2927 99.8057 30.5069 88.6085 36.6041L88.635 36.6569Z" fill="white"/>
<path d="M-9.8755 231L-13 230.842C-12.8411 227.911 -8.92223 158.976 18.7748 138.805C49.3051 116.654 58.8905 92.8929 63.4713 77.0519C68.7671 58.2539 96.2789 53.2904 97.444 53L98 56.0889C97.7352 56.0889 71.3356 60.9732 66.49 77.9231C61.7767 94.3185 51.9266 118.766 20.6813 141.472C-5.87714 160.64 -9.84902 230.182 -9.8755 231Z" fill="white"/>
</g>
<g opacity="0.5">
<path d="M381.637 267C384.305 266.978 386.965 266.696 389.578 266.155C392.768 265.746 395.783 264.465 398.287 262.452C400.792 260.439 402.688 257.774 403.767 254.753C408.875 240.236 397.069 216.639 387.487 205.263C377.361 191.811 372.242 175.267 373.007 158.465C373.298 153.925 373.748 149.702 374.172 146.007C375.39 135.29 376.263 127.53 371.525 122.383C367.475 117.817 359.613 115.837 345.266 115.785C320.118 115.653 310.165 105.227 302.197 96.9388C299.146 93.4137 295.576 90.3702 291.609 87.9119C279.088 81.102 265.8 79.9934 260.056 85.5363C257.409 88.1758 255 93.1908 259.553 102.614C263.029 109.537 267.708 115.792 273.371 121.09C279.168 127.002 283.006 130.909 280.994 138.695C280.544 140.517 279.988 142.364 279.459 144.212C275.568 157.409 271.174 172.401 293.886 182.59C298.703 184.728 303.071 186.47 306.962 187.869C322.845 194.071 332.348 197.819 343.148 220.519C345.239 224.927 347.092 229.097 348.866 233.136C357.654 252.509 364.087 267 381.637 267ZM290.365 90.6569C294.015 92.9536 297.291 95.793 300.08 99.0768C308.498 107.84 318.927 118.767 345.425 118.899C358.66 118.899 365.993 120.668 369.248 124.442C372.504 128.217 372.134 135.739 371.022 145.558C370.598 149.306 370.122 153.476 369.831 158.148C368.913 175.765 374.297 193.135 385.025 207.163C394.528 218.407 405.249 240.816 400.908 253.618C399.999 256.131 398.41 258.345 396.317 260.013C394.224 261.681 391.708 262.738 389.049 263.067C367.66 267.37 361.757 254.04 351.989 231.948C350.189 227.909 348.336 223.713 346.245 219.278C334.916 195.523 324.354 191.3 308.365 184.965C304.527 183.461 300.159 181.771 295.421 179.686C275.224 170.633 278.85 158.201 282.715 145.03C283.271 143.156 283.827 141.256 284.303 139.408C286.739 129.932 281.921 125.049 275.859 118.873C270.434 113.825 265.952 107.854 262.623 101.241C260.585 96.9388 258.891 91.132 262.465 87.7534C267.203 83.2927 279.194 84.5069 290.391 90.6041L290.365 90.6569Z" fill="white"/>
<path d="M388.875 285L392 284.842C391.841 281.911 387.922 212.976 360.225 192.805C329.695 170.654 320.11 146.893 315.529 131.052C310.233 112.254 282.721 107.29 281.556 107L281 110.089C281.265 110.089 307.664 114.973 312.51 131.923C317.223 148.319 327.073 172.766 358.319 195.472C384.877 214.64 388.849 284.182 388.875 285Z" fill="white"/>
</g>
<g opacity="0.5">
<path d="M215.935 155.607C214.813 155.979 213.601 155.979 212.479 155.607C211.897 155.428 211.362 155.123 210.911 154.715C210.459 154.307 210.103 153.805 209.867 153.244C208.826 151.277 207.531 149.454 206.014 147.825C203.769 147.169 201.788 145.823 200.351 143.978C198.914 142.134 198.094 139.884 198.008 137.547C197.921 135.211 198.573 132.907 199.87 130.962C201.167 129.016 203.043 127.528 205.234 126.708C207.424 125.888 209.817 125.777 212.074 126.392C214.33 127.007 216.336 128.317 217.807 130.135C219.277 131.952 220.138 134.187 220.268 136.521C220.397 138.855 219.788 141.171 218.527 143.14C218.583 145.259 218.917 147.361 219.52 149.393C220.424 151.676 219.013 154.356 216.372 155.448L215.935 155.607ZM206.004 127.428C203.909 128.102 202.088 129.432 200.81 131.223C199.532 133.014 198.865 135.168 198.91 137.367C198.955 139.566 199.708 141.692 201.057 143.43C202.407 145.167 204.281 146.423 206.401 147.011H206.53L206.61 147.11C208.228 148.828 209.604 150.758 210.701 152.847C210.885 153.29 211.164 153.686 211.52 154.007C211.875 154.328 212.298 154.566 212.757 154.703C213.816 155.04 214.961 154.987 215.985 154.554C218.169 153.681 219.351 151.487 218.626 149.671C217.996 147.506 217.662 145.266 217.633 143.011V142.872L217.712 142.753C218.879 140.985 219.468 138.898 219.396 136.78C219.325 134.663 218.597 132.621 217.314 130.935C216.03 129.249 214.255 128.003 212.232 127.369C210.21 126.736 208.04 126.746 206.024 127.398L206.004 127.428Z" fill="white"/>
<path d="M212.578 152.877L206.63 142.187L209.768 143.17L210.562 140.966L212.439 141.959L213.869 139.21L217.147 151.011L216.263 151.259L213.611 141.691L212.827 143.2L211.069 142.267L210.334 144.301L208.537 143.746L213.383 152.43L212.578 152.877Z" fill="white"/>
<path d="M219.571 152.963L212.235 155.906L213.423 158.863L220.759 155.92L219.571 152.963Z" fill="white"/>
<path d="M219.552 149.463L209.857 153.353L211.766 158.106L221.461 154.216L219.552 149.463Z" fill="white"/>
</g>
<path opacity="0.5" d="M157.319 20.8162C155.8 18.5128 153.428 16.9077 150.725 16.3541C148.022 15.8005 145.209 16.3437 142.905 17.8642C141.764 18.6171 140.783 19.5873 140.017 20.7193C139.251 21.8514 138.715 23.1231 138.44 24.4619C137.885 27.1659 138.427 29.979 139.946 32.2824C140.208 32.7171 140.521 33.1194 140.877 33.4809C141.108 33.7428 141.353 33.9924 141.61 34.2289C143.935 36.4536 149.292 40.4439 161.208 45.6346C161.148 32.6378 159.537 26.1077 158.498 23.1601C158.384 22.825 158.25 22.4966 158.099 22.1764C157.892 21.6945 157.631 21.2381 157.319 20.8162ZM152.199 31.9588C151.134 32.6604 149.885 33.031 148.61 33.0241C147.334 33.0172 146.09 32.633 145.033 31.9198C143.976 31.2067 143.154 30.1966 142.67 29.0167C142.186 27.8368 142.062 26.5399 142.314 25.2894C142.566 24.0389 143.182 22.8906 144.085 21.9894C144.988 21.0881 146.137 20.474 147.388 20.2246C148.638 19.9751 149.935 20.1014 151.114 20.5876C152.292 21.0737 153.301 21.8979 154.012 22.9564C154.488 23.665 154.819 24.4609 154.985 25.2982C155.152 26.1355 155.151 26.9975 154.982 27.8346C154.814 28.6717 154.481 29.4671 154.003 30.175C153.526 30.8828 152.913 31.4891 152.199 31.9588Z" fill="white"/>
<g opacity="0.5">
<path d="M153.336 119.789L124.971 114L121.006 133.409L149.371 139.197L153.336 119.789Z" fill="white"/>
<path d="M121 133.411L137.397 125.457L149.364 139.198L121 133.411Z" fill="#E8E8E8"/>
<path d="M153.325 119.787L136.67 128.983L124.961 114L153.325 119.787Z" fill="#F0F0F0"/>
</g>
<path opacity="0.5" d="M194.74 78C192.921 77.9942 191.14 78.5219 189.623 79.5167C188.106 80.5116 186.92 81.929 186.215 83.5903C184.614 82.7342 182.792 82.3658 180.98 82.5316C179.168 82.6974 177.446 83.3898 176.03 84.5221C171.127 88.4868 173.648 92.402 173.648 92.402C177.11 100.768 193.819 105 193.819 105C193.819 105 204.175 91.3315 201.584 82.6685C201.584 82.6685 201.083 78.0595 194.74 78Z" fill="white"/>
<g opacity="0.5">
<path d="M267.306 49.9985L245.662 31.0991L231.973 46.7775L229.087 50.0819L235.276 49.6619L253.617 65.6768L267.306 49.9985Z" fill="white"/>
<path d="M250.756 50.4736C250.47 50.8001 250.094 51.0346 249.675 51.1473C249.256 51.26 248.813 51.2459 248.402 51.1068C247.991 50.9677 247.63 50.7098 247.366 50.3658C247.101 50.0218 246.944 49.6071 246.915 49.1742C246.886 48.7412 246.986 48.3094 247.203 47.9334C247.419 47.5574 247.742 47.2541 248.131 47.0618C248.52 46.8696 248.957 46.7969 249.388 46.8532C249.818 46.9094 250.222 47.092 250.549 47.3778C250.766 47.5672 250.944 47.7977 251.072 48.056C251.2 48.3143 251.276 48.5953 251.295 48.883C251.314 49.1706 251.277 49.4592 251.184 49.7321C251.092 50.0051 250.946 50.2571 250.756 50.4736Z" fill="#DDDDDD"/>
<path d="M256.18 55.2217C255.894 55.5482 255.518 55.7827 255.099 55.8954C254.68 56.0081 254.237 55.994 253.826 55.8549C253.415 55.7158 253.054 55.4579 252.789 55.1139C252.525 54.7699 252.368 54.3552 252.339 53.9222C252.31 53.4893 252.41 53.0575 252.626 52.6815C252.843 52.3055 253.166 52.0022 253.555 51.8099C253.944 51.6176 254.381 51.545 254.811 51.6013C255.242 51.6575 255.646 51.8401 255.972 52.1259C256.189 52.3156 256.367 52.5462 256.495 52.8045C256.622 53.0628 256.698 53.3437 256.717 53.6312C256.737 53.9186 256.699 54.2071 256.607 54.48C256.515 54.7529 256.37 55.005 256.18 55.2217Z" fill="#DDDDDD"/>
<path d="M245.446 45.8205C245.16 46.147 244.784 46.3814 244.365 46.4941C243.946 46.6068 243.503 46.5927 243.092 46.4536C242.681 46.3145 242.32 46.0567 242.056 45.7127C241.791 45.3687 241.634 44.9539 241.605 44.521C241.576 44.088 241.676 43.6563 241.893 43.2803C242.109 42.9043 242.432 42.601 242.821 42.4087C243.21 42.2164 243.647 42.1438 244.077 42.2C244.508 42.2562 244.912 42.4388 245.239 42.7246C245.676 43.1084 245.943 43.6497 245.982 44.23C246.021 44.8103 245.828 45.3822 245.446 45.8205Z" fill="#DDDDDD"/>
</g>
<g opacity="0.5">
<path d="M327.366 59.7893L322.372 57.5953C322.175 57.5094 322.021 57.3491 321.943 57.1495C321.865 56.95 321.869 56.7276 321.955 56.5312C322.041 56.3348 322.201 56.1805 322.401 56.1023C322.6 56.0242 322.823 56.0285 323.02 56.1143L326.548 57.6501L329.095 52.006C329.183 51.8104 329.345 51.6577 329.546 51.5816C329.746 51.5054 329.969 51.5121 330.165 51.6001C330.361 51.6881 330.513 51.8503 330.59 52.0509C330.666 52.2514 330.659 52.474 330.571 52.6697L327.366 59.7893Z" fill="white"/>
<path d="M333.068 64.5393C331.417 65.6988 329.459 66.343 327.442 66.3905C325.425 66.438 323.439 65.8865 321.735 64.8059C320.032 63.7253 318.687 62.1641 317.871 60.3196C317.055 58.4751 316.805 56.4303 317.152 54.4437C317.499 52.457 318.427 50.6178 319.82 49.1586C321.213 47.6993 323.007 46.6856 324.976 46.2456C326.945 45.8057 329.001 45.9591 330.883 46.6867C332.764 47.4142 334.388 48.6832 335.549 50.3331C337.102 52.5466 337.713 55.2855 337.248 57.9489C336.783 60.6122 335.279 62.9824 333.068 64.5393ZM322.147 49.055C320.733 50.0493 319.646 51.4402 319.023 53.052C318.4 54.6638 318.269 56.4241 318.646 58.1103C319.024 59.7965 319.893 61.3329 321.145 62.5252C322.396 63.7176 323.973 64.5124 325.676 64.8092C327.379 65.1059 329.132 64.8913 330.713 64.1924C332.294 63.4935 333.633 62.3418 334.559 60.8828C335.485 59.4238 335.958 57.7231 335.917 55.9956C335.876 54.2681 335.324 52.5915 334.33 51.1778C332.99 49.2893 330.958 48.0067 328.676 47.6091C326.394 47.2115 324.047 47.7312 322.147 49.055Z" fill="white"/>
</g>
<g opacity="0.5">
<path d="M199.053 15.5734L193.256 14.7312L190.664 9.47869C190.519 9.18558 190.221 9 189.894 9C189.568 9 189.269 9.18539 189.124 9.47869L186.532 14.7312L180.735 15.5734C180.033 15.6754 179.751 16.5419 180.259 17.0378L184.454 21.1265L183.463 26.8999C183.344 27.5995 184.081 28.1361 184.709 27.8049L189.894 25.0793C195.542 28.0483 195.187 27.9038 195.478 27.9038C195.656 27.9038 195.833 27.8485 195.983 27.7397C196.247 27.5475 196.38 27.2221 196.325 26.9001L195.334 21.1267L199.529 17.038C200.037 16.5428 199.756 15.6758 199.053 15.5734Z" fill="white"/>
<path d="M189.457 22.6412L185.263 18.5525C184.754 18.0571 185.035 17.1902 185.738 17.088L191.535 16.2459L192.77 13.7447L190.664 9.47869C190.519 9.18558 190.221 9 189.894 9C189.568 9 189.269 9.18539 189.124 9.47869L186.532 14.7312L180.735 15.5734C180.033 15.6754 179.751 16.5419 180.259 17.0378L184.454 21.1265L183.463 26.8999C183.344 27.5995 184.081 28.1361 184.709 27.8049L188.954 25.5736L189.457 22.6412Z" fill="#E0E0E0"/>
</g>
<path opacity="0.5" d="M40.8439 14.6878C44.6237 14.6878 47.6878 11.6237 47.6878 7.8439C47.6878 4.06412 44.6237 1 40.8439 1C37.0641 1 34 4.06412 34 7.8439C34 11.6237 37.0641 14.6878 40.8439 14.6878Z" fill="white"/>
<path opacity="0.5" d="M256.604 2.51988C255.306 1.58369 248.611 -2.83373 245.088 2.8462C242.913 6.35298 244.109 9.46884 247.691 11.6215C247.691 11.622 247.694 11.6238 247.694 11.6238C260.166 19.139 282.045 34.8302 301.246 61.4151C301.246 61.4146 285.36 24.3564 256.604 2.51988Z" fill="white"/>
</svg>
